<?xml version="1.0" standalone="no"?>
<!DOCTYPE svg PUBLIC "-//W3C//DTD SVG 1.1//EN" "http://www.w3.org/Graphics/SVG/1.1/DTD/svg11.dtd" >
<svg xmlns="http://www.w3.org/2000/svg">
<metadata>
Created by FontForge 20120731 at Tue Mar 29 17:30:54 2016
 By Ads
</metadata>
<defs>
<font id="iconfont" horiz-adv-x="1024" >
  <font-face 
    font-family="iconfont"
    font-weight="500"
    font-stretch="normal"
    units-per-em="1024"
    panose-1="2 0 6 3 0 0 0 0 0 0"
    ascent="896"
    descent="-128"
    x-height="792"
    bbox="0 -224 2900 896"
    underline-thickness="50"
    underline-position="-100"
    unicode-range="U+0078-E666"
  />
<missing-glyph horiz-adv-x="374" 
d="M34 0v682h272v-682h-272zM68 34h204v614h-204v-614z" />
    <glyph glyph-name=".notdef" horiz-adv-x="374" 
d="M34 0v682h272v-682h-272zM68 34h204v614h-204v-614z" />
    <glyph glyph-name=".null" horiz-adv-x="0" 
 />
    <glyph glyph-name="nonmarkingreturn" horiz-adv-x="341" 
 />
    <glyph glyph-name="x" unicode="x" horiz-adv-x="1001" 
d="M281 543q-27 -1 -53 -1h-83q-18 0 -36.5 -6t-32.5 -18.5t-23 -32t-9 -45.5v-76h912v41q0 16 -0.5 30t-0.5 18q0 13 -5 29t-17 29.5t-31.5 22.5t-49.5 9h-133v-97h-438v97zM955 310v-52q0 -23 0.5 -52t0.5 -58t-10.5 -47.5t-26 -30t-33 -16t-31.5 -4.5q-14 -1 -29.5 -0.5
t-29.5 0.5h-32l-45 128h-439l-44 -128h-29h-34q-20 0 -45 1q-25 0 -41 9.5t-25.5 23t-13.5 29.5t-4 30v167h911zM163 247q-12 0 -21 -8.5t-9 -21.5t9 -21.5t21 -8.5q13 0 22 8.5t9 21.5t-9 21.5t-22 8.5zM316 123q-8 -26 -14 -48q-5 -19 -10.5 -37t-7.5 -25t-3 -15t1 -14.5
t9.5 -10.5t21.5 -4h37h67h81h80h64h36q23 0 34 12t2 38q-5 13 -9.5 30.5t-9.5 34.5q-5 19 -11 39h-368zM336 498v228q0 11 2.5 23t10 21.5t20.5 15.5t34 6h188q31 0 51.5 -14.5t20.5 -52.5v-227h-327z" />
    <glyph glyph-name="uniE600" unicode="&#xe600;" horiz-adv-x="1000" 
d="M625 -30h-253v16q0 32 -22.5 54.5t-54 22.5t-54 -22.5t-22.5 -54.5v-16h-161v586h567v-586zM402 2h191v522h-503v-522h98q6 40 36.5 66.5t71 26.5t71 -26.5t35.5 -66.5zM976 -30h-124v16q0 32 -22.5 54.5t-54 22.5t-54 -22.5t-22.5 -54.5v-16h-106v457h201q19 0 53 -32
q26 -26 56 -65q73 -95 73 -131v-229zM883 2h61v197q0 9 -16.5 39t-47.5 70q-28 37 -53 62q-24 23 -33 25h-169v-393h43q6 40 36.5 66.5t71 26.5t71 -26.5t36.5 -66.5zM976 173h-272v180h181l5 -6q34 -41 58 -82q28 -45 28 -66v-26zM736 205h207q-5 16 -22 44q-21 35 -51 72
h-134v-116zM775.5 -122q-44.5 0 -76.5 31.5t-32 76.5t32 77t76.5 32t76.5 -32t32 -77t-32 -76.5t-76.5 -31.5zM775.5 63q-31.5 0 -54 -22.5t-22.5 -54t22.5 -54t54 -22.5t54 22.5t22.5 54t-22.5 54t-54 22.5zM295 -122q-45 0 -76.5 31.5t-31.5 76.5t31.5 77t76.5 32t77 -32
t32 -77t-32 -76.5t-77 -31.5zM295.5 63q-31.5 0 -54 -22.5t-22.5 -54t22.5 -54t54 -22.5t54 22.5t22.5 54t-22.5 54t-54 22.5z" />
    <glyph glyph-name="uniE601" unicode="&#xe601;" 
d="M137 561v-122l528 -139v138zM716 444v-329q10 -1 22 -1q11 0 25 2t30 8q19 8 30 21t17 25q6 15 7 31l24 350q-6 -12 -15 -24q-7 -10 -17.5 -21.5t-24.5 -20.5q-16 -12 -33.5 -19.5t-31.5 -12.5q-17 -6 -33 -9zM145 599l719 63q-2 -23 -10 -45q-7 -19 -19 -40t-33 -37
q-27 -23 -50.5 -34t-41.5 -16q-21 -5 -38 -5zM577 600q-9 0 -15.5 -6.5t-6.5 -15.5t6.5 -15.5t15.5 -6.5t15.5 6.5t6.5 15.5t-6.5 15.5t-15.5 6.5zM665 561q-10 0 -16.5 -7t-6.5 -16q0 -10 6.5 -16.5t16.5 -6.5q9 0 15.5 6.5t6.5 16.5q0 9 -6.5 16t-15.5 7zM694 621
q-9 0 -15.5 -6.5t-6.5 -15.5t6.5 -15.5t15.5 -6.5t15.5 6.5t6.5 15.5t-6.5 15.5t-15.5 6.5zM772 617q-9 0 -15.5 -6.5t-6.5 -15.5t6.5 -15.5t15.5 -6.5t15.5 6.5t6.5 15.5t-6.5 15.5t-15.5 6.5zM479 600q-9 0 -15.5 -6.5t-6.5 -15.5t6.5 -15.5t15.5 -6.5t15.5 6.5t6.5 15.5
t-6.5 15.5t-15.5 6.5zM665 249l-528 146v-64q0 -29 11 -44.5t39 -25.5q4 -1 26.5 -8t56.5 -17q33 -11 76 -24q42 -13 87 -26q103 -32 232 -71v134zM665 249z" />
    <glyph glyph-name="uniE602" unicode="&#xe602;" 
d="M913 390l-59 6q-9 32 -25 62l37 46q11 14 9.5 33.5t-15.5 32.5l-58 58q-16 16 -38 16q-16 0 -28 -10l-46 -37q-30 16 -63 26l-6 59q-2 18 -16.5 30t-34.5 12h-82q-20 0 -34.5 -12t-16.5 -30l-6 -59q-33 -10 -63 -26l-46 37q-12 10 -28 10q-22 0 -38 -16l-58 -58
q-14 -13 -15.5 -32.5t9.5 -33.5l37 -46q-16 -30 -25 -62l-59 -6q-18 -2 -30.5 -17t-12.5 -34v-82q0 -20 12.5 -35t30.5 -16l59 -7q9 -32 25 -62l-37 -46q-11 -14 -9.5 -33t15.5 -33l58 -58q16 -16 38 -16q16 0 28 10l46 37q30 -16 63 -26l6 -59q2 -17 16.5 -29.5t34.5 -12.5
h82q20 0 34.5 12.5t16.5 29.5l6 59q33 10 63 26l46 -37q12 -10 28 -10q22 0 38 16l58 58q14 14 15.5 33t-9.5 33l-37 46q16 30 25 62l59 7q18 1 30.5 16t12.5 35v82q0 19 -12.5 34t-30.5 17zM915 257q0 -11 -6 -11l-86 -9l-4 -14q-10 -41 -32 -78l-7 -12l54 -67q4 -5 -3 -13
l-58 -58q-4 -4 -9 -4q-2 0 -3 1l-68 55l-12 -7q-36 -22 -77 -33l-14 -3l-9 -86q-1 -7 -11 -7h-82q-10 0 -11 7l-9 86l-14 3q-41 11 -77 33l-12 7l-68 -55q-1 -1 -3 -1q-5 0 -9 4l-58 58q-7 8 -3 13l54 67l-7 12q-22 37 -32 78l-4 14l-86 9q-6 0 -6 11v82q0 10 6 11l86 9
l4 13q10 41 32 78l7 12l-54 68q-4 5 3 12l58 58q4 4 9 4q2 0 3 -1l68 -55l12 8q36 21 77 32l14 3l9 87q1 6 11 6h82q10 0 11 -6l9 -87l14 -3q41 -11 77 -32l12 -8l68 55q1 1 3 1q5 0 9 -4l58 -58q8 -7 3 -12l-54 -68l7 -12q22 -37 32 -78l4 -13l86 -9q6 -1 6 -11v-82z
M529 432q-55 0 -94.5 -39.5t-39.5 -95t39.5 -94.5t94.5 -39t94.5 39t39.5 94.5t-39.5 95t-94.5 39.5zM529 204q-39 0 -66.5 27.5t-27.5 66t27.5 66t66.5 27.5t66.5 -27.5t27.5 -66t-27.5 -66t-66.5 -27.5zM529 204z" />
    <glyph glyph-name="uniE603" unicode="&#xe603;" 
d="M896 588l-511 -511q-14 -14 -32 -15.5t-31 10.5q-13 13 -13 31.5t13 31.5l511 511q13 13 31.5 13t31.5 -13t13 -29t-13 -29zM228 629q-19 0 -32 -13t-13 -32v-604q0 -19 13 -32t32 -13h503q18 0 28.5 13t10.5 32v277v5q0 3 3 10.5t8 13.5t15 10.5t24 4.5q18 -1 31 -12.5
t13 -29.5q0 -28 -25 -40v-249q0 -49 -21 -79t-65 -30h-532q-47 0 -79 31.5t-32 77.5v621q0 46 32.5 78.5t78.5 32.5h377q44 0 44 -29q0 -24 -17 -44h-397z" />
    <glyph glyph-name="uniE604" unicode="&#xe604;" 
d="M912 -156h-781q-36 0 -62 26t-26 63v733q0 37 26 63t62 26h781q37 0 63 -26t26 -63v-733q0 -37 -26 -63t-63 -26zM107 463v-530q0 -10 7 -17.5t17 -7.5h781q10 0 17.5 7.5t7.5 17.5v530q-12 -4 -25 -4h-781q-12 0 -24 4zM107 548q0 -10 7 -17.5t17 -7.5h781
q10 0 17.5 7.5t7.5 17.5v118q0 11 -7.5 18t-17.5 7h-781q-10 0 -17 -7t-7 -18v-118zM532 52q-108 0 -188.5 64.5t-93.5 159.5h-34v64h139v-64h-40q13 -69 74.5 -114.5t142.5 -45.5t142 45.5t75 114.5h-29v64h139v-64h-45q-14 -95 -94 -159.5t-188 -64.5z" />
    <glyph glyph-name="uniE605" unicode="&#xe605;" 
d="M813 762q-5 -4 -12.5 -11t-27 -26.5t-34 -36t-25 -34t-7.5 -25.5q7 -24 20 -48t21 -24q57 0 66 65q2 18 3 39t0.5 38.5t-1.5 32t-2 22.5zM714 490q0 2 0.5 5t5 11.5t12 15.5t24 13t38.5 8q59 4 86 11.5t37 24.5q3 4 -1 -1q-2 -2 -10 -13q-83 -103 -106 -113
q-18 -6 -39 -7t-36 11.5t-11 33.5zM661 390q1 1 1.5 3.5t5 8.5t11.5 10t20.5 7.5t31.5 2.5q45 -2 85 7t45 20l-4 -3q-3 -4 -14 -18q-80 -100 -106 -111q-58 -26 -71 -9q-5 7 -10.5 20t-5.5 31.5t11 30.5zM599 250q1 1 1.5 3.5t4.5 8.5t10 11t17 9t25 4h29q13 0 25.5 0.5
t23 2.5t21.5 6.5t21 12.5q16 12 14 2q-3 -18 -38 -58l-10 -10q-9 -9 -22 -27t-23.5 -26t-27.5 -8q-12 -1 -34.5 -5t-34 -3.5t-12.5 9.5q-6 51 5 63zM550 125q22 19 63 17q29 -1 68.5 6t49.5 21q-22 -31 -57 -70q-6 -7 -11 -12q-31 -29 -57 -43.5t-49 -1.5q-25 16 -25 42
t18 41zM631 730q2 -13 7 -32.5t20.5 -59t33.5 -52.5q17 -13 19 -33.5t-4.5 -35t-13.5 -19.5q-6 -4 -16.5 -6.5t-25 -3t-28.5 9.5t-21 31q-16 43 -6.5 111t35.5 90zM570 577q1 -6 2 -16t5.5 -36t11.5 -46.5t21 -39.5t31 -22q13 -3 18.5 -6t2 -7.5t-7.5 -7.5t-14 -8
q-6 -3 -8.5 -4.5t-7 -4.5t-6.5 -5t-4 -4.5t-2 -5.5q0 -13 -25 -11q-37 3 -50 35q-4 9 -4 20q-4 56 3 98t34 71zM501 437q74 -128 81 -151q1 -5 3.5 -12t3.5 -10.5t1 -7.5t-2.5 -7t-8.5 -5q-69 -33 -86 -6q-9 17 -15.5 44t-2.5 71.5t26 83.5zM434 308q2 -3 5.5 -8t14 -19.5
t19.5 -27.5t20.5 -30t19.5 -30t13.5 -23.5t4.5 -14.5q-1 -22 -10 -44.5t-28 -24.5q-3 -1 -14.5 -3t-17.5 -3t-15 0.5t-14 6.5t-8.5 16t-3.5 28q1 31 8.5 91t5.5 86zM468 69q2 -1 6 -3.5t13.5 -7.5t17 -9t15.5 -7t10 -3q4 2 -20.5 -40.5t-50.5 -84.5l-26 -43l-33 4
q67 142 68 194zM230 560q-1 -5 -2.5 -12t-5 -26.5t-5.5 -35t-1 -29.5t6 -18q13 -11 30 -19.5t22 -5.5q33 23 12 65q-9 18 -23 38.5t-23 31.5zM281 361q-2 4 -4 9.5t4 22t25 32.5q33 26 45.5 41.5t12.5 29.5q-1 4 -1 -1q0 -3 -1 -11q-7 -94 -16 -110q-7 -11 -20 -19.5t-26 -8
t-19 14.5zM289 282q0 1 -0.5 2.5t0 6.5t2.5 10.5t9 13t17 14.5q27 17 46.5 38.5t18.5 29.5l-2 -19q-7 -90 -18 -108q-23 -38 -37 -34q-12 4 -25 16.5t-11 29.5zM309 175q-1 3 -2 7.5t4 16t17 21.5q6 4 16.5 11.5t15.5 11t11.5 10t10.5 13.5t7 15q7 22 9 -3t-3 -48
q-2 -10 -2.5 -25.5t-3 -24.5t-12.5 -16q-7 -5 -18.5 -17t-18 -16t-10.5 1q-24 27 -22 38zM329 83q6 20 30 35q17 11 37.5 31t20.5 33q0 -42 -7 -76q-13 -66 -44 -69q-20 -2 -30.5 13.5t-6.5 32.5zM138 467q6 -7 16.5 -16.5t35 -25.5t39.5 -17q23 -1 31.5 -20.5t4.5 -30.5
q-2 -7 -10 -14.5t-23 -12.5t-32 8q-26 18 -47.5 61.5t-14.5 67.5zM163 353q1 -1 3.5 -4t10 -11.5t14.5 -15t18 -15.5t19.5 -13t20 -7t18.5 2q17 7 17.5 1t-6.5 -18q-2 -4 -2.5 -5.5t-2 -4.5t-1.5 -5l-2 -4v-3.5t1 -2.5q6 -9 -12 -18q-31 -16 -51 10q-52 67 -45 114zM178 244
q94 -44 106 -55q3 -3 7.5 -6t6 -4.5t3.5 -4t1.5 -5t-2.5 -6.5q-28 -47 -48 -38q-21 10 -45.5 41.5t-28.5 77.5zM190 141q110 -38 117 -49q23 -39 5 -56l-9 -9q-8 -8 -11.5 -10t-11 -4.5t-14 3t-14.5 17.5q-12 18 -31.5 56t-30.5 52zM304 16q44 3 48 9q2 3 6 -62.5t4 -75.5
l-21 -11l-2 12q-2 11 -5.5 28.5t-7.5 36.5t-10 37t-12 26z" />
    <glyph glyph-name="uniE606" unicode="&#xe606;" 
d="M256 428v-384v384zM320 492h-128v-512h128v512zM512 556v-512v512zM576 620h-128v-640h128v640zM768 300v-256v256zM832 364h-128v-384h128v384z" />
    <glyph glyph-name="uniE607" unicode="&#xe607;" 
d="M949 -92l-198 175q37 46 60 102q30 75 30 157t-30 156q-30 73 -83.5 129t-122.5 87q-72 32 -151 32t-152 -32q-69 -31 -122.5 -87t-82.5 -129q-31 -74 -31 -156t31 -157q29 -73 82.5 -128.5t122.5 -86.5q73 -32 152 -32t151 32q57 25 104 68l200 -176q8 -8 20 -8
q14 0 23 10q8 10 7.5 22.5t-10.5 21.5zM453.5 -1q-88.5 0 -163.5 46t-118.5 125t-43.5 172t43.5 171.5t118.5 124.5t163.5 46t163.5 -46t119 -124.5t44 -171.5t-44 -172t-119 -125t-163.5 -46z" />
    <glyph glyph-name="uniE608" unicode="&#xe608;" 
d="M555 -212h-86q-115 0 -196 81.5t-81 196.5v291h640v-291q0 -115 -81 -196.5t-196 -81.5zM525 237q-30 0 -51 -21t-21 -51q0 -23 12 -41t32 -26v-127q0 -12 8.5 -20t19.5 -8t19.5 8t8.5 20v127q20 8 32 26t12 41q0 30 -21 51t-51 21zM641 501q0 33 -23 56t-56 23h-88
q-33 0 -56 -23t-23 -56v-89h-104v89q0 76 53.5 129.5t129.5 53.5h88q76 0 129.5 -53.5t53.5 -129.5v-89h-104v89z" />
    <glyph glyph-name="uniE609" unicode="&#xe609;" 
d="M266 392q4 -1 8 -1q11 0 19.5 6t10.5 16q16 54 69 84.5t132 30.5q13 0 22 9t9 22t-9 22t-22 9q-101 0 -170 -42.5t-90 -117.5q-4 -12 2.5 -23.5t18.5 -14.5zM897 262q-6 8 -16 11q16 57 16 106q0 144 -105 231q-103 85 -275 85t-276 -85q-104 -87 -104 -232
q0 -48 16 -105q-10 -3 -16 -11q-10 -11 -6 -26l80 -344q3 -10 11 -17t19 -7h551q11 0 19.5 7t10.5 17l81 344q3 15 -6 26zM834 212l-66 -282h-40l32 282h74zM697 212l-32 -282h-50l18 282h64zM425 212l18 -282h-66l-32 282h80zM517 634q48 0 92 -8.5t86 -28t72.5 -48
t49 -72.5t18.5 -98q0 -44 -18 -105h-600q-18 61 -18 104q0 55 18.5 99t49 72.5t72 48t86 28t92.5 8.5zM282 212l32 -282h-48l-66 282h82zM571 212l-19 -282h-47l-18 282h84z" />
    <glyph glyph-name="uniE60A" unicode="&#xe60a;" 
d="M302.5 90.5q-7.5 7.5 -7.5 18.5t8 19l381 381q8 8 19 8t18.5 -7.5t7.5 -18.5t-8 -19l-381 -381q-8 -8 -19 -8t-18.5 7.5zM302.5 509.5q7.5 7.5 18.5 7.5t19 -8l381 -381q8 -8 8 -19t-7.5 -18.5t-18.5 -7.5t-19 8l-381 381q-8 8 -8 19t7.5 18.5z" />
    <glyph glyph-name="uniE60B" unicode="&#xe60b;" 
d="M512 -127q-8 3 -21 8t-50.5 22.5t-72 37t-76 51t-71.5 64.5t-51 77t-21 89v375l363 130l363 -130v-375q0 -45 -20 -89t-52 -77.5t-71 -63.5t-77.5 -51.5t-70.5 -37t-52 -22.5zM663 433l-181 -181l-100 99l-60 -60l99 -99l61 -61l60 61l181 181z" />
    <glyph glyph-name="uniE60C" unicode="&#xe60c;" 
d="M951 727v-514q0 -46 -22 -92t-57.5 -89t-81 -81.5t-92.5 -68.5q-48 -30 -92 -50t-77 -27l-11 -2l-9 2q-35 7 -80 27t-94 50q-48 30 -95 68.5t-84 81.5t-60 89t-23 92v514l36 5l404 80l412 -80zM513 738l-5 1l-346 -62v-325h351v386zM862 352h-349v-462q34 9 73.5 25.5
t78 39.5t74.5 51t63.5 60t43.5 66.5t16 70.5v149z" />
    <glyph glyph-name="uniE60D" unicode="&#xe60d;" 
d="M936 166h-77q24 39 39 82q23 66 23 136q0 84 -32 161q-32 74 -89 131t-131 89q-77 32 -161 32q-71 0 -138 -23q-9 -3 -13.5 -12.5t-1.5 -18.5t12.5 -13.5t18.5 -1.5q59 21 122 21q73 0 139.5 -27.5t118 -79.5t79.5 -118.5t28 -139.5q0 -62 -20 -120q-14 -38 -35 -72
l-24 70q-3 10 -12 14t-18 1q-10 -3 -14.5 -12t-0.5 -19l39 -112q2 -6 6 -10q7 -7 17 -7l125 1q10 0 17 7t7 17t-7 17t-17 7zM666 55q-74 -36 -158 -36q-73 0 -140 27.5t-118.5 79.5t-79 118.5t-27.5 139.5q0 122 72 219l32 -89q6 -16 23 -16q4 0 8 2q9 3 13.5 12t1.5 19
l-44 121q-6 18 -25 16h-6h-130q-10 0 -17 -7.5t-7 -17.5t7 -17t17 -7l80 1q-74 -107 -74 -236q0 -84 33 -161q31 -74 88.5 -131.5t131.5 -88.5q77 -33 161 -33q95 0 179 41q9 5 12.5 14.5t-1.5 18.5q-4 9 -13.5 12t-18.5 -1z" />
    <glyph glyph-name="uniE60E" unicode="&#xe60e;" 
d="M865 600l56 232l-232 -56l59 -59l-224 -224l-95 95l-326 -326l62 -62l264 264l95 -95l286 286zM176 149h117v-213h-117v213zM370 256h117v-320h-117v320zM571 364h118v-428h-118v428zM767 469h118v-533h-118v533z" />
    <glyph glyph-name="uniE60F" unicode="&#xe60f;" 
d="M529 594h139v-76h-139v76zM914 780q-20 6 -54.5 14.5t-130 23.5t-176.5 15q-85 0 -180.5 -13.5t-149.5 -26.5l-54 -13q2 -6 0 -60t1.5 -146t9 -181t20.5 -164t37 -97q46 -46 94.5 -86.5t109 -75.5t100.5 -35t102 36t111 77t92 84q68 68 68 648zM413 198h-39h-3v4
q2 31 2 93v172q-24 -40 -42 -64l-4 -4l-2 5q-9 17 -24 28l-3 2l2 3q40 48 68 108.5t38 107.5l1 5l4 -3q16 -12 42 -19l5 -2l-3 -3q-10 -14 -21.5 -39t-18.5 -45v-250q0 -63 2 -95v-4h-4zM769 271q-15 -13 -29 -36l-1 -3l-3 1q-47 26 -78 65q-24 32 -39 64v-91q0 -44 2 -69
v-4h-4h-41h-3v4q2 27 2 66v104q-46 -86 -113 -142l-3 -2l-2 3q-11 16 -33 26l-7 2l6 4q65 35 109 122h-22q-40 0 -67 -2l-4 -1v4v37v4l4 -1q26 -2 63 -2h69v56h-86h-4l1 3q2 28 2 74q0 48 -2 71l-1 4h4h219h4v-4q-2 -28 -2 -75q0 -45 2 -70v-3h-4h-89v-56h54q53 0 82 2h3v-3
v-37v-4l-3 1q-34 2 -78 2h-27q17 -36 45 -64q31 -29 73 -44l5 -2z" />
    <glyph glyph-name="uniE610" unicode="&#xe610;" 
d="M400 411h-223l335 335l335 -335l-223 -1v-558l-224 -1v560zM400 411z" />
    <glyph glyph-name="uniE611" unicode="&#xe611;" 
d="M624 186h223l-335 -335l-335 335h223v559l224 1v-560zM624 186z" />
    <glyph glyph-name="uniE612" unicode="&#xe612;" horiz-adv-x="1492" 
d="M1169 576h-145l301 -362h-1316v-99h1473v99z" />
    <glyph glyph-name="uniE613" unicode="&#xe613;" 
d="M1002 607q-54 45 -110 69q-27 13 -63.5 20t-59.5 7h-23q-61 5 -123 -24q-27 -13 -54 -30.5t-40 -27.5l-13 -11q-63 48 -119 73q-25 12 -59 17t-56 4l-21 -1q-77 -3 -126 -25.5t-95 -74.5v-680q70 60 111 77q19 8 45.5 12t43.5 4h18q78 -9 124 -28q21 -8 54.5 -30
t56.5 -39.5t23 -18.5q56 59 100 82q34 17 73 25.5t55.5 7.5t22.5 0q46 -2 110 -26q26 -10 57.5 -27t50.5 -28l19 -12zM492 -25q-5 4 -13.5 10.5t-35.5 22.5t-53.5 28t-63 22t-68.5 9q-74 -1 -113 -16.5t-65 -40.5v70v144v162v137q0 57 0 55q1 3 5 8t18.5 18.5t33 23.5
t52 19.5t73.5 11.5q41 3 84 -8t72.5 -28t49 -32t22.5 -23q2 -14 2 -593zM958 -3q-26 26 -82 48.5t-129 23.5q-32 1 -65 -8.5t-57.5 -23.5t-44 -28.5t-29.5 -24t-10 -10.5q-1 572 2 593q6 9 21.5 22.5t43 31t71.5 28.5t93 9q34 -2 66 -10.5t53 -20t37.5 -22.5t23.5 -19l8 -7
q-2 -549 -2 -582z" />
    <glyph glyph-name="uniE614" unicode="&#xe614;" 
d="M748 277l-422 -407l-50 41l390 389l-390 369l50 61l422 -410v-43z" />
    <glyph glyph-name="uniE615" unicode="&#xe615;" 
d="M281 278l417 -416q9 -10 22.5 -10t22.5 9.5t9 23t-9 22.5l-373 374l-11 10q-5 6 -4.5 10.5t2.5 7.5l3 3l11 11l370 370q9 9 9 22.5t-9.5 23t-22.5 9.5t-23 -10l-412 -412v-1h-1l-1 -1q-9 -10 -9 -23t9 -23z" />
    <glyph glyph-name="uniE616" unicode="&#xe616;" 
d="M256 428l256 -321l257 321h-513z" />
    <glyph glyph-name="uniE617" unicode="&#xe617;" 
d="M871 169l-358 359l-359 -359v-95l359 359l358 -359v95z" />
    <glyph glyph-name="uniE618" unicode="&#xe618;" 
d="M610 646l-107 -217q-13 -26 -21 -49h-1q-11 28 -20 47l-106 219h-90l152 -282h-124v-62h147v-87h-147v-62h147v-125h79v125h143v62h-143v87h143v62h-122l154 282h-84z" />
    <glyph glyph-name="uniE619" unicode="&#xe619;" 
d="M959 406l-308 47l-139 295l-139 -295l-308 -47l223 -228l-53 -324l277 153l277 -153l-53 324zM512 72l-208 -117l40 235l-179 182l242 32l105 224l104 -224l241 -34l-177 -181l37 -235z" />
    <glyph glyph-name="uniE61A" unicode="&#xe61a;" 
d="M263 180v4q1 15 11.5 26t26.5 11h16h25l-158 430h-124v-35h100l132 -361q-27 -3 -45 -23.5t-18 -47.5v-4q0 -30 21 -51t51 -21h611v35h-611q-16 0 -26.5 11t-11.5 26zM417 224h410l131 331h-659l9 -23zM907 520l-103 -261h-363l-92 261h558zM357 83q-35 0 -60 -25
t-25 -59.5t25 -59.5t60 -25t59.5 24.5t24.5 59.5t-24.5 60t-59.5 25zM356.5 -51q-20.5 0 -35 14.5t-14.5 35t14.5 35t35 14.5t35 -14.5t14.5 -35t-14.5 -35t-35 -14.5zM792 83q-35 0 -59.5 -25t-24.5 -60t24.5 -59.5t59.5 -24.5t60 24.5t25 59.5t-25 60t-60 25zM792.5 -51
q-20.5 0 -35 14.5t-14.5 35t14.5 35t35 14.5t35 -14.5t14.5 -35t-14.5 -35t-35 -14.5z" />
    <glyph glyph-name="uniE61B" unicode="&#xe61b;" 
d="M888 -147q0 119 -66.5 215t-173.5 138q68 37 109 105t41 148q0 120 -84 204t-202.5 84t-202.5 -84t-84 -204q0 -80 41 -148t109 -105q-107 -42 -173.5 -138t-66.5 -215h56v6v8q0 87 43 161t116.5 117t161 43t161 -43t116.5 -117t43 -161v-8v-6h56zM286 459q0 94 66 161
t159.5 67t160 -67t66.5 -161t-66.5 -160.5t-160 -66.5t-159.5 66.5t-66 160.5z" />
    <glyph glyph-name="uniE61C" unicode="&#xe61c;" 
d="M800 74q-44 13 -59.5 41t-13.5 72q3 53 0 100q-2 34 18 60t49 30t59 -15l9 -3q7 58 -19.5 123t-72 117.5t-106.5 88.5t-121 41q-68 5 -129.5 -15.5t-106 -58.5t-78 -88t-50.5 -103.5t-19 -104.5l12 3q29 19 57.5 15.5t49 -29t18.5 -59.5q-1 -14 -0.5 -63t0.5 -63
q-1 -38 -23 -62.5t-55 -24.5t-55.5 24.5t-22.5 61.5q0 20 -0.5 71t0 78t5.5 68t15 74q68 220 262 279q98 29 195.5 -5t166.5 -120q92 -116 98 -281q1 -10 1 -163q0 -56 -49 -81q-17 -9 -28 -25q-63 -91 -156 -137q-9 -4 -26 -34q-19 -35 -51 -28q-19 4 -30 17t-8 30
q3 12 14 24t24 20q7 1 11.5 0t15 -5.5t14.5 -6.5q22 -5 26 -4q91 40 159 141zM157 230v-80q2 -24 19 -40.5t42 -17.5q25 0 43.5 16.5t18.5 42.5q2 78 0 153q0 25 -17.5 41.5t-42.5 16.5q-25 1 -43 -16t-20 -43v-73zM744 228v-73q1 -28 18.5 -45.5t43.5 -17.5t43.5 17.5
t17.5 43.5q2 80 0 150q-1 26 -18.5 43t-43.5 16q-26 0 -43 -17t-18 -44v-73zM584 -153q-6 0 -12 1q-27 5 -40 25q-10 15 -6 34q7 30 43 51q4 2 10 2q8 0 25 -7q10 -5 14 -6q2 0 6 -2q9 -2 12 -2h1q83 36 146 126q-37 14 -53 43t-13 75q3 53 0 99q-3 44 25 74q27 29 64 29
q25 0 47 -15q4 106 -84 212q-49 58 -109 93t-117 40q-14 1 -27 1q-61 0 -115 -22t-93.5 -57.5t-69.5 -81t-46.5 -93t-20.5 -92.5q22 14 47 14q37 0 63 -27q28 -30 27 -72q-2 -25 -1 -75v-52q-1 -41 -25 -68q-25 -28 -63 -28q-36 0 -61 25q-28 28 -27 71q0 21 -1 64v76
q0 36 5 77.5t16 76.5q34 108 97 178q69 76 172 107q46 14 94 14q79 0 152 -37t127 -105q48 -61 74 -135q23 -70 26 -151q2 -38 1 -114v-50q0 -62 -54 -90q-15 -8 -25 -22q-64 -93 -160 -140q-7 -4 -18 -24l-3 -6q-19 -34 -50 -34zM578 -60q-27 -16 -32 -37q-2 -11 4 -19
q8 -12 26 -16q4 -1 8 -1q19 0 32 24q1 1 3 5q10 19 17 26v0q-6 0 -18 4q-4 1 -5 1q-6 2 -17 7q-14 6 -17 6h-1zM809 82l5 -2q2 2 4 3q-5 -1 -9 -1zM219 352q-21 0 -35.5 -14t-15.5 -35q-1 -17 -1 -50v-23v-24q0 -37 1 -55q1 -20 15 -34t35 -15h1q21 0 36 14.5t15 35.5
q2 77 0 152q0 20 -14.5 34t-35.5 14h-1zM805 352q-21 0 -35.5 -14.5t-15.5 -36.5q-1 -17 0 -50v-23v-22v-51q1 -23 15 -38t37 -15q22 1 36 15.5t15 35.5q1 80 0 149q-1 22 -15.5 36t-36.5 14zM152 346q0 -10 -1 -21q5 14 15 25q-2 -1 -3 -1zM859 349q9 -10 14 -23
q-1 12 -1 23l-1 -3l-11 3h-1zM580 -97zM532 -97q0 20 14 34t34 14t34 -14t14 -34t-14 -34t-34 -14t-34 14t-14 34zM580 -155q-24 0 -41 17t-17 41t17 41t41 17t41 -17t17 -41t-17 -41t-41 -17zM579.5 -59q-15.5 0 -26.5 -11t-11 -27t11 -27t26.5 -11t26.5 11t11 27t-11 27
t-26.5 11z" />
    <glyph glyph-name="uniE61D" unicode="&#xe61d;" 
d="M46 451q0 25 18.5 42.5t44.5 17.5h63v-273h-63q-26 0 -44.5 17.5t-18.5 43.5v152zM387 107q5 -12 12 -26q6 -12 16 -28.5t24 -36.5q17 -23 34.5 -48.5t26.5 -46.5t5.5 -34.5t-28.5 -13.5h-57q-20 0 -37 7t-32.5 22t-32 38.5t-35.5 55.5q-23 37 -32 64.5t-12 45.5
q-4 22 0 37q8 -1 19 -4l22 -4q13 -3 30 -6q17 -4 30.5 -7.5t24.5 -7.5q12 -4 22 -8v1zM387 107zM985 460q-6 57 -18 109t-31 94t-46 64t-62 18t-78 -44q-43 -38 -96 -63t-109 -41t-109 -25t-96 -17t-70.5 -16.5t-31.5 -22.5v-304q4 -9 37.5 -16t83.5 -14q50 -8 110.5 -17
t119 -24t108 -37t78.5 -55q30 -33 57.5 -37.5t51.5 11.5t43.5 50.5t34 79.5t22 96.5t7.5 102.5t-6 108zM855 80q-31 0 -53 87t-22 210t22 210t53 87q32 0 60 -89t28 -208t-28 -208t-60 -89z" />
    <glyph glyph-name="uniE61E" unicode="&#xe61e;" 
d="M160 108h128v-128h-128v128zM352 236h128v-256h-128v256zM544 428h128v-448h-128v448zM736 620h128v-640h-128v640z" />
    <glyph glyph-name="uniE61F" unicode="&#xe61f;" 
d="M626 365zM65 -34h55v542l288 46l45 -16l39 -318l15 -14v498l287 45l121 -43v-740h43v-74h-234v772l-148 -24v-748h-238v577l-148 -24v-553h-125v74v0zM662 516v-57q3 0 8.5 0.5t7.5 1.5q6 0 17 1v58q-3 -1 -17 -2q-14 -2 -16 -2v0zM662 616v-57q13 2 16 2q7 1 17 2v58
q-7 -1 -17 -3q-2 0 -8 -1t-8 -1v0zM662 416v-57q2 0 7.5 0.5t8.5 0.5t8.5 0.5t8.5 0.5v58q-6 -1 -17 -2q-3 0 -9 -0.5t-7 -0.5v0zM662 316v-57q2 0 7.5 0.5t8.5 0.5h8q6 0 9 1v57q-13 -1 -17 -1q-7 -1 -16 -1zM662 216v-57h16q3 0 9 0.5t8 0.5v57q-10 0 -17 -1h-16v0z
M601 509v-56q4 0 17 2q7 0 16 1v57q-3 -1 -8.5 -1.5t-7.5 -0.5q-11 -1 -17 -2v0zM601 608v-56q4 0 17 2q3 0 8.5 0.5t7.5 1.5v56q-11 -1 -16 -2q-10 -1 -17 -2v0zM601 410v-56q3 1 8.5 1t8.5 1q9 0 16 1v56q-3 0 -8.5 -0.5t-7.5 -0.5q-6 -1 -17 -2v0zM601 312v-56
q4 0 9.5 0.5t7.5 0.5q4 0 16 1v56q-10 -1 -16 -1q-3 0 -8.5 -0.5t-8.5 -0.5v0zM601 213v-56q6 0 17 1h8h8v57q-5 -1 -16 -1h-6q-2 0 -5.5 -0.5t-5.5 -0.5v0zM662 114v-56h16h17v57h-9h-8q-10 0 -16 -1v0zM601 114v-56h17h16v56h-8h-8h-8h-9zM215 320v-56q3 0 8.5 0.5
t7.5 0.5q3 1 8 1t8 1v56q-2 0 -7.5 -0.5t-8.5 -0.5l-16 -2v0zM275 326v-57q3 0 8.5 0.5t8.5 1.5q4 0 17 1v58q-2 0 -8 -1t-9 -1t-8.5 -0.5t-8.5 -1.5v0zM275 427v-57q3 0 17 1q14 2 17 2v58q-4 0 -17 -2q-4 -1 -10 -1.5t-7 -0.5v0zM275 226v-57q3 0 9 0.5t8 0.5q3 0 9.5 0.5
t7.5 0.5v57q-13 -1 -17 -1q-15 -1 -17 -1v0zM275 126v-58q6 1 17 1h8h9v58q-3 0 -9 -0.5t-8 -0.5h-17v0zM275 25v-57h17h17v58q-13 0 -17 -1h-17v0zM215 419v-57q10 2 16 2q3 1 8.5 1.5t7.5 0.5v57q-3 0 -16 -2q-4 -1 -16 -2v0zM215 221v-56q2 0 7.5 0.5t8.5 0.5t8.5 0.5
t7.5 0.5v57q-11 -1 -16 -1q-3 -1 -8 -1t-8 -1v0zM215 123v-56h7h9q3 0 8 0.5t8 0.5v56h-16q-6 -1 -16 -1zM215 24v-56h16h16v57h-9q-5 0 -7 -1h-16z" />
    <glyph glyph-name="uniE620" unicode="&#xe620;" 
d="M493 607q-48 0 -81.5 -34t-33.5 -81.5t33.5 -81t81.5 -33.5t81.5 33.5t33.5 81t-33.5 81.5t-81.5 34zM493 837q-94 0 -173.5 -46.5t-125.5 -126t-46 -172.5q0 -54 37 -134.5t83 -149.5t105 -145t82.5 -103.5t37.5 -42.5q14 15 37.5 42t83 103.5t104.5 145.5t82.5 149.5
t37.5 134.5q0 93 -46 172.5t-125.5 126t-173.5 46.5zM493 262q-95 0 -162.5 67t-67.5 162.5t67.5 163t162.5 67.5t162.5 -67.5t67.5 -163t-67.5 -162.5t-162.5 -67z" />
    <glyph glyph-name="uniE621" unicode="&#xe621;" 
d="M511 739q-89 0 -170 -35t-139.5 -93.5t-93 -139.5t-34.5 -170t34.5 -169.5t93 -139.5t139.5 -93.5t170 -34.5t170 34.5t139.5 93.5t93.5 139.5t35 169.5t-35 170t-93.5 139.5t-139.5 93.5t-170 35zM511 -62q-99 0 -183 48.5t-133 132.5t-49 183t49 183t133 133t183 49
t183 -49t132.5 -133t48.5 -183t-48.5 -183t-132.5 -132.5t-183 -48.5zM703 304v0h-182v219v0q0 15 -11 25.5t-26 10.5t-25.5 -10.5t-10.5 -25.5v0v-219v-2v-71h255v0q15 0 25.5 10.5t10.5 26t-10.5 26t-25.5 10.5z" />
    <glyph glyph-name="uniE622" unicode="&#xe622;" 
d="M253 512h-52v-103h52v103zM354 335h-52v-103h52v103zM354 157h-52v-102h52v102zM253 157h-52v-103h52v103zM253 334h-52v-102h52v102zM253 689h-52v-102h52v102zM455 334h-51v-102h51v102zM455 511h-51v-102h51v102zM455 689h-51v-102h51v102zM455 157h-51v-102h51v102z
M354 512h-52v-103h52v103zM354 690h-52v-103h52v103zM684 486h-53v-77h53v77zM784 233h-51v-77h51v77zM607 613v279h-557v-1013h557h380v734h-380zM530 -46h-404v861h404v-861zM936 -74h-355v636h355v-636zM684 359h-53v-76h53v76zM684 233h-53v-77h53v77zM684 106h-53v-77
h53v77zM886 359h-51v-76h51v76zM886 106h-51v-77h51v77zM886 233h-51v-77h51v77zM886 486h-51v-77h51v77zM784 487h-51v-78h51v78zM784 360h-51v-77h51v77zM784 107h-51v-78h51v78z" />
    <glyph glyph-name="uniE623" unicode="&#xe623;" 
d="M418 133h277v-56h-277v56zM418 329h277v-56h-277v56zM418 525h277v-56h-277v56zM328 525h44v-56h-44v56zM328 329h44v-56h-44v56zM833 749h-643h-46v-56v-784v-56h46h643h46v56v784v56h-46zM833 -91h-643v784h643v-784zM328 133h44v-56h-44v56z" />
    <glyph glyph-name="uniE624" unicode="&#xe624;" 
d="M942 -27q0 -18 -12.5 -30.5t-30 -12.5t-30 12.5t-12.5 30.5v1v1v1q0 104 -71 178v1q-12 12 -12 29t11.5 28.5t28.5 11.5t29 -12q47 -46 73 -108t26 -130v-1zM605 232h-1q-105 0 -179 -75t-74 -181v-2v-1q0 -18 -12.5 -30.5t-30 -12.5t-30 12.5t-12.5 30.5v1q0 101 55 184
t144 124q-37 30 -58.5 74.5t-21.5 94.5q0 90 64 154.5t155 64.5t155 -64.5t64 -155t-64 -154.5t-154 -64zM604 590q-58 0 -98.5 -40.5t-40.5 -98.5t40.5 -98.5t98.5 -40.5t98.5 40.5t40.5 98.5t-40.5 98.5t-98.5 40.5zM345 552q-35 -10 -57.5 -39t-22.5 -66q0 -31 16 -56.5
t43 -39.5t30 -45q2 -20 -5.5 -38t-26.5 -23q-71 -19 -117 -76.5t-48 -130.5v-5q0 -16 -11 -27t-26.5 -11t-26.5 11t-11 27v1v0q0 93 49.5 165t130.5 105q-33 26 -52.5 63.5t-19.5 80.5q0 54 30 98.5t79 66.5q22 9 37 1.5t19 -24.5q3 -12 0.5 -20.5t-6.5 -13.5z" />
    <glyph glyph-name="uniE625" unicode="&#xe625;" 
d="M286 413l-46 -45l272 -272l272 272l-46 45l-226 -226z" />
    <glyph glyph-name="uniE626" unicode="&#xe626;" horiz-adv-x="1366" 
d="M614 383q0 -6 -4.5 -11t-11.5 -5h-375q-7 0 -11.5 5t-4.5 11v376q0 6 4.5 11t11.5 5h375q7 0 11.5 -5t4.5 -11v-376zM1159 383q0 -6 -4.5 -11t-11.5 -5h-375q-7 0 -11.5 5t-4.5 11v376q0 6 4.5 11t11.5 5h375q7 0 11.5 -5t4.5 -11v-376zM614 -162q0 -7 -4.5 -11.5
t-11.5 -4.5h-375q-7 0 -11.5 4.5t-4.5 11.5v375q0 7 4.5 11.5t11.5 4.5h375q7 0 11.5 -4.5t4.5 -11.5v-375zM1159 -162q0 -7 -4.5 -11.5t-11.5 -4.5h-375q-7 0 -11.5 4.5t-4.5 11.5v375q0 7 4.5 11.5t11.5 4.5h375q7 0 11.5 -4.5t4.5 -11.5v-375z" />
    <glyph glyph-name="uniE627" unicode="&#xe627;" 
d="M156 499q-43 0 -74 31t-31 74t31 73.5t74 30.5t73.5 -30.5t30.5 -73.5t-30.5 -74t-73.5 -31zM155.5 644q-16.5 0 -28.5 -11.5t-12 -28.5q0 -18 11.5 -29.5t29 -11.5t29 11.5t11.5 29.5q0 17 -12 28.5t-28.5 11.5zM156 177q-43 0 -74 30.5t-31 74t31 74t74 30.5
t73.5 -30.5t30.5 -74t-30.5 -74t-73.5 -30.5zM155.5 322q-16.5 0 -28.5 -11.5t-12 -28.5q0 -18 11.5 -29.5t29 -11.5t29 11.5t11.5 29.5q0 17 -12 28.5t-28.5 11.5zM156 -145q-43 0 -74 30.5t-31 74t31 74t74 30.5t73.5 -30.5t30.5 -74t-30.5 -74t-73.5 -30.5zM155.5 0
q-16.5 0 -28.5 -11.5t-12 -29.5q0 -17 11.5 -28.5t29 -11.5t29 11.5t11.5 28.5q0 18 -12 29.5t-28.5 11.5zM939 587h-555q-13 0 -22.5 9.5t-9.5 22t9.5 22.5t22.5 10h555q12 0 22 -10t10 -22.5t-10 -22t-22 -9.5zM939 -96h-555q-13 0 -22.5 9.5t-9.5 22.5t9.5 22.5t22.5 9.5
h555q12 0 22 -9.5t10 -22.5t-10 -22.5t-22 -9.5zM939 245h-555q-13 0 -22.5 10t-9.5 22.5t9.5 22t22.5 9.5h555q12 0 22 -9.5t10 -22t-10 -22.5t-22 -10z" />
    <glyph glyph-name="uniE628" unicode="&#xe628;" horiz-adv-x="2900" 
d="M250 256q-24 -3 -53.5 -12.5t-47.5 -24.5q-23 -21 -32 -47t-2 -51.5t25.5 -47.5t54.5 -35t82 -13q69 0 136 40.5t123 113.5q-91 44 -156 63.5t-130 13.5zM845 169q66 -22 111.5 -35t57.5 -15l13 -2v531q0 68 -48 116t-117 48h-698q-68 0 -116 -48t-48 -116v-696
q0 -68 48 -116t116 -48h698q69 0 117 48t48 116v7q-267 111 -402 175q-69 -84 -154 -131t-174 -47q-74 0 -127.5 30t-75.5 74t-16.5 96.5t41.5 96.5q38 45 113 63q107 27 357 -56q36 67 58 141h-402v41h207v72h-251v41h251v104q0 2 0.5 5t5 7.5t12.5 4.5h101v-121h248v-41
h-248v-72h203q-29 -117 -86 -216q21 -8 56 -20.5t59 -21.5t42 -15zM2489 651h294v-58h105v58v11v1q0 11 -8 19.5t-20 8.5h-170v54h-109v-54h-197v-20v-20v-58h105v58zM1853 740l-108 -254h83v-303h90v401h-33l68 156h-100zM2900 197l-33 111q-4 12 -17 12h-87l25 -85h-103
v165h202v40h-202v78h202v39h-202h-100h-201v-39h201v-78h-201v-40h201v-165h-201v-40h516l-1 2h1zM2084 531q-6 12 -19 12h-78l61 -191h92zM2281 736h-93v-99h-232v-39h232v-352q-2 -15 -16 -15h-47v-41h121q15 0 25 11t10 25v5v367h39v39h-39v99zM1696 557h-180v65h209v40
h-209v82h-94q-7 0 -12.5 -6t-5.5 -14v-62h-208v-40h208v-65h-175v-40h349l-3 -9q-2 -6 -10.5 -23t-20 -34.5t-33.5 -42.5t-48 -48q-38 29 -67 58t-38 44l-10 15h-93q51 -90 149 -160q-89 -58 -211 -95v-48q15 3 41.5 9.5t98 33.5t131.5 61q59 -34 125.5 -60t104.5 -35l37 -9
v46q-117 42 -207 98q136 101 172 239zM1400 -86l16 -47h43l-86 233h-33l-86 -233h44l16 47h86zM1358 40l32 -97h-66zM1597 100v-233h142v31h-100v202h-42zM1893 100h42v-233h-42v233zM2196 100h-91v-233h42v89h49q34 0 55.5 20.5t21.5 52t-21.5 51.5t-55.5 20zM2194 -12h-47
v80h47q16 0 26.5 -12t10.5 -27.5t-10 -28t-27 -12.5zM2520 -86l15 -47h44l-86 233h-33l-86 -233h44l16 47h86zM2477 40l33 -97h-66zM2813 100l-46 -99l-46 99h-46l71 -137v-96h42v96l70 137h-45z" />
    <glyph glyph-name="uniE629" unicode="&#xe629;" 
d="M352 364v256h320v-256h192l-352 -384l-352 384h192z" />
    <glyph glyph-name="uniE62A" unicode="&#xe62a;" 
d="M672 236v-256h-320v256h-192l352 384l352 -384h-192z" />
    <glyph glyph-name="uniE62B" unicode="&#xe62b;" 
d="M486 594l276 -294l-276 -294l84 -90l358 384l-358 384zM160 594l269 -294l-269 -294l83 -90l352 384l-352 384z" />
    <glyph glyph-name="uniE62C" unicode="&#xe62c;" 
d="M69 438h886v-224h-886v224z" />
    <glyph glyph-name="uniE62D" unicode="&#xe62d;" 
d="M417 -7h189v755h-189v-755zM133 -7h189v378h-189v-378zM700 512v-519h189v519h-189zM700 512z" />
    <glyph glyph-name="uniE62E" unicode="&#xe62e;" 
d="M494.5 748q-116.5 0 -215.5 -52t-157 -141t-58 -194q0 -95 48.5 -178.5t133.5 -138.5v-192l169 128q40 -7 79 -7q117 0 216 52t156.5 141t57.5 194.5t-57.5 194.5t-156.5 141t-215.5 52zM688 256q0 -12 -6 -20.5t-15 -8.5h-341q-9 0 -15 8.5t-6 20.5v10q0 12 6 20.5
t15 8.5h341q9 0 15 -8.5t6 -20.5v-10zM749 440q0 -12 -8 -20.5t-19 -8.5h-451q-11 0 -19 8.5t-8 20.5v10q0 12 8 20t19 8h451q11 0 19 -8t8 -20v-10z" />
    <glyph glyph-name="uniE62F" unicode="&#xe62f;" 
d="M537 412zM422 412.5q0 47.5 33.5 81t81 33.5t81 -33.5t33.5 -81t-33.5 -81t-81 -33.5t-81 33.5t-33.5 81z" />
    <glyph glyph-name="uniE630" unicode="&#xe630;" 
d="M1024 39q0 -25 -8.5 -47.5t-24 -41t-36.5 -30.5t-46 -16v-2h-687q-2 0 -2.5 -0.5t-2.5 -0.5t-3 0.5t-3 0.5h-6v1q-43 2 -80.5 19.5t-65 46.5t-43.5 67.5t-16 81.5t16 81t43 66.5t63.5 47t78.5 21.5q7 67 36.5 125t76 101t107 67.5t129.5 24.5q73 0 137.5 -27.5t112 -76
t75 -112.5t27.5 -136q0 -33 -6 -64.5t-17 -59.5q2 0 4.5 0.5t4.5 0.5q28 0 53 -11t43 -29.5t29 -43.5t11 -54zM687 191q12 20 7 23.5t-25 3.5q-13 0 -35 0.5t-33 0.5q-16 0 -21 13t-5 37q0 33 -0.5 53t-0.5 43q0 27 -3.5 39t-28.5 12q-19 0 -28 -0.5t-26 -0.5
q-27 0 -34 -15.5t-7 -31.5v-33q0 -13 1 -25t1 -26v-30q0 -16 -4.5 -24.5t-19.5 -8.5q-6 -1 -17 -1l-22 -2h-21h-17q-21 0 -25.5 -13.5t13.5 -33.5q17 -22 37 -47t39.5 -50.5t37.5 -49.5t33 -42q28 -31 54 1q15 18 35.5 45.5t42 57.5t41 58.5t31.5 46.5z" />
    <glyph glyph-name="uniE631" unicode="&#xe631;" 
d="M281 713h462v-826h-462v826z" />
    <glyph glyph-name="uniE632" unicode="&#xe632;" horiz-adv-x="1424" 
d="M486 753l312 -172q6 -4 13.5 -2t10.5 8l9 15q4 6 2 13t-8 11l-312 172q-7 3 -14 1.5t-11 -8.5l-9 -14q-4 -7 -2 -13.5t9 -10.5zM216 306l312 -172q6 -4 13 -2t11 8l9 15q4 6 2 13t-8 11l-312 172q-7 3 -14 1.5t-11 -8.5l-9 -14q-4 -7 -2 -13.5t9 -10.5zM1316 96l-625 309
l84 139q4 6 2 13t-8 10l-281 155q-7 4 -14 2t-11 -8l-198 -328q-3 -6 -1.5 -13t8.5 -11l281 -154q6 -4 13 -2t11 8l84 139l592 -362q7 -4 14 -2.5t11 8.5l45 74q3 6 1 13t-8 10zM1414 52l-31 18q-6 3 -13.5 1t-11.5 -8l-54 -89q-3 -6 -1.5 -13t8.5 -11l31 -17
q6 -3 13.5 -1.5t11.5 7.5l54 90q3 6 1.5 13t-8.5 10zM740 -54h-37q2 2 -2 3q-10 1 -10 5v89h-599v-89q0 -3 -22 -5q-5 -2 -5 -3h-38q-11 0 -19 -12t-8 -25v-89q0 -14 8 -29t19 -15h713q12 0 27.5 16t15.5 28v89q0 12 -15 24.5t-28 12.5zM691 -180h-599q-13 0 -29.5 16
t-16.5 28.5t16.5 28.5t29.5 16h599q13 0 29.5 -16t16.5 -28.5t-16.5 -28.5t-29.5 -16zM691 -180z" />
    <glyph glyph-name="uniE633" unicode="&#xe633;" horiz-adv-x="1025" 
d="M806 655h-17l-109 53h140q17 0 29 -11.5t12 -27.5v-49l-55 27v8zM753 241l-77 106l77 23v-129zM392 800l632 -309l-204 -63l6 -5l35 11v-294q0 -17 -12 -28.5t-29 -11.5h-209h-55v-66l55 -53v-13h-361v13l56 53v66h-56h-208q-18 0 -30 11.5t-12 28.5v529q0 16 12 27.5
t30 11.5h317l14 -53h-317v-449h750v218l-269 230l208 -248l-233 -73z" />
    <glyph glyph-name="uniE634" unicode="&#xe634;" 
d="M849 106v615q0 23 -16.5 39.5t-39.5 16.5h-561v4q0 21 16.5 36.5t39.5 15.5h561q23 0 39.5 -15.5t16.5 -36.5v-623q0 -22 -16.5 -37t-39.5 -15zM793 666v-671q0 -23 -16.5 -39.5t-39.5 -16.5h-561q-23 0 -39.5 16.5t-16.5 39.5v671q0 23 16.5 39.5t39.5 16.5h561
q23 0 39.5 -16.5t16.5 -39.5zM204 -6h504q12 0 20.5 8.5t8.5 19.5q0 12 -8.5 20t-20.5 8h-504q-11 0 -19.5 -8t-8.5 -20q0 -11 8.5 -19.5t19.5 -8.5zM456.5 666q-116.5 0 -198.5 -81t-82 -196t82 -196t198.5 -81t198.5 81t82 196t-82 196t-198.5 81zM594 231
q-61 -58 -144.5 -55t-140.5 64q-40 43 -51 100.5t10 111.5l188 -74l192 62q18 -56 3.5 -112.5t-57.5 -96.5zM351 574q61 40 134 31t123 -62q30 -32 45 -75l-192 -63zM238 490q17 43 49 73q13 12 27 21l112 -168z" />
    <glyph glyph-name="uniE635" unicode="&#xe635;" 
d="M512 668q-73 0 -124.5 -51.5t-51.5 -124.5t51.5 -124.5t124.5 -51.5t124.5 51.5t51.5 124.5t-51.5 124.5t-124.5 51.5zM512 748q-106 0 -181 -75t-75 -181t75 -181t181 -75t181 75t75 181t-75 181t-181 75zM512 300q-80 0 -136 56t-56 136t56 136t136 56t136 -56t56 -136
t-56 -136t-136 -56zM294 304l-166 -292h192l96 -160l96 212l67 148q-33 -8 -67 -8q-64 0 -120.5 26.5t-97.5 73.5zM730 304q-47 -54 -112 -80l-90 -196l80 -176l96 160h192z" />
    <glyph glyph-name="uniE636" unicode="&#xe636;" horiz-adv-x="1025" 
d="M512 896q-104 0 -199 -40.5t-163.5 -109t-109 -163.5t-40.5 -199t40.5 -199t109 -163.5t163.5 -109t199 -40.5t199 40.5t163.5 109t109 163.5t40.5 199t-40.5 199t-109 163.5t-163.5 109t-199 40.5zM514 213l-71 -77l-290 269l72 76l216 -201l357 384l73 -67z" />
    <glyph glyph-name="uniE637" unicode="&#xe637;" 
d="M802 302q-27 60 -40.5 112t-14.5 81t4.5 53t9.5 29.5t7 9.5q2 1 0.5 3.5t-4.5 1.5q-5 -2 -15.5 -7t-33 -22t-39.5 -36.5t-28 -52t-6 -68.5q-18 16 -37 36.5t-47.5 64.5t-43.5 89t-12 106t33 119q1 2 -0.5 3.5t-3.5 0.5q-7 -2 -18.5 -8.5t-37.5 -27.5t-46 -48
q-89 -120 -27 -302q20 -80 -36 -153q11 39 10 78q-3 105 -92 156q-2 2 -4 0.5t-1 -3.5q23 -132 -21 -185q-36 -44 -56 -103.5t-4 -115.5q27 -102 172 -153q35 -11 74 -18q3 -1 3.5 2t-1.5 4q-108 47 -62 156q41 89 22 135q56 -32 46 -85q0 -3 2 -4t3.5 0.5t6.5 5.5t15 15.5
t19 24.5t18 31.5t13 37.5t2 42.5t-12 46.5q10 -6 19 -13t21 -23t18 -34.5t5.5 -47.5t-11.5 -61q-6 -22 0.5 -44.5t12.5 -29.5t11 -13q2 -1 4 0t1 4q-1 4 -3 9.5t-3.5 20t0.5 28t11 29t25 26.5q-10 -60 12 -88q38 -45 31 -93q-6 -37 -44 -62q-2 -2 -1 -4.5t4 -1.5
q137 45 180 140q40 87 -10 206v0zM802 302z" />
    <glyph glyph-name="uniE638" unicode="&#xe638;" 
d="M960 300q0 -26 -21 -60.5t-61.5 -71t-93.5 -67.5t-125 -50.5t-147 -19.5q-73 0 -144.5 19.5t-124.5 50t-94.5 66.5t-63 71t-21.5 62t21.5 62t63 71t95 66.5t124.5 50t144 19.5q76 0 148 -19.5t125 -50t93.5 -66.5t61 -71t20.5 -62v0zM512 520q-89 0 -152.5 -64.5
t-63.5 -155.5t63.5 -155.5t153 -64.5t152.5 64.5t63 155.5t-63 155.5t-153 64.5v0zM512 440q-57 0 -97 -41t-40 -99t40 -99t97 -41t97 41t40 99t-40 99t-97 41v0zM512 440z" />
    <glyph glyph-name="uniE63A" unicode="&#xe63a;" horiz-adv-x="1000" 
d="M284 286h185h16h60h23h178q12 0 21 9t9 21.5t-9 21t-21 8.5h-178h-23h-60h-16h-185q-12 0 -21 -8.5t-9 -21t9 -21.5t21 -9z" />
    <glyph glyph-name="uniE63B" unicode="&#xe63b;" 
d="M809 325h-272v272q0 10 -7.5 17.5t-17.5 7.5t-17.5 -7.5t-7.5 -17.5v-272h-272q-10 0 -17.5 -7.5t-7.5 -17.5t7.5 -17.5t17.5 -7.5h272v-272q0 -10 7.5 -17.5t17.5 -7.5t17.5 7.5t7.5 17.5v272h272q10 0 17.5 7.5t7.5 17.5t-7.5 17.5t-17.5 7.5z" />
    <glyph glyph-name="uniE63C" unicode="&#xe63c;" 
d="M913 469q-33 78 -93.5 138.5t-138.5 93.5q-81 34 -169 34t-169 -34q-78 -33 -138.5 -93.5t-93.5 -138.5q-34 -81 -34 -169t34 -169q33 -78 93.5 -138.5t138.5 -93.5q81 -34 169 -34t169 34q78 33 138.5 93.5t93.5 138.5q34 81 34 169t-34 169zM783.5 28.5
q-54.5 -54.5 -124.5 -83.5t-147 -29t-147 29t-124.5 83.5t-83.5 124.5t-29 147t29 147t83.5 124.5t124.5 83.5t147 29t147 -29t124.5 -83.5t83.5 -124.5t29 -147t-29 -147t-83.5 -124.5zM538 587q0 10 -7.5 17.5t-18.5 7.5t-18.5 -7.5t-7.5 -17.5v-275q0 -3 1 -6
q-1 -3 -1 -6q0 -11 7.5 -18.5t18.5 -7.5h287q10 0 17.5 7.5t7.5 18.5t-7.5 18.5t-17.5 7.5h-261v261z" />
    <glyph glyph-name="uniE63D" unicode="&#xe63d;" 
d="M260 410h515q8 0 14 6q6 5 6 13t-5 13l-108 110q-6 6 -13.5 6t-13 -5.5t-5.5 -13t5 -13.5l77 -78l-472 -1q-8 0 -13.5 -5.5t-5.5 -13t5.5 -13t13.5 -5.5zM767 364l-514 -9q-9 1 -15 -5t-6 -13.5t6 -12.5l110 -109q5 -5 13 -5t13.5 5.5t5 13t-5.5 13.5l-78 77l472 8
q7 0 12.5 6t5.5 13.5t-5.5 13t-13.5 4.5zM679 802q-68 27 -140 31.5t-139 -13.5t-126 -54t-105.5 -91.5t-73.5 -123t-31.5 -140t13.5 -139t54 -125.5t91.5 -105.5t123 -73.5t140 -31.5t139 13.5t125.5 54t105.5 91t73.5 123t31.5 140t-13.5 139t-54 126t-91 105.5t-123 73.5
zM357 -3q-79 31 -139 90.5t-90 132.5t-34 156.5t30 163.5q31 79 90.5 139t133 90t157 34t162.5 -30q79 -32 139 -91t90.5 -132.5t34 -157t-30.5 -162.5q-31 -79 -90.5 -139t-132.5 -90.5t-156.5 -34t-163.5 30.5v0zM357 -3z" />
    <glyph glyph-name="uniE63E" unicode="&#xe63e;" 
d="M572 313h-36v-48q0 -21 -5 -37.5t-20.5 -38t-53 -40.5t-95.5 -35q13 -11 24 -27q60 18 99.5 40.5t57 47.5t23.5 45t6 44v49zM562 167q93 -36 157 -77l25 24q-71 41 -157 74zM573 513q86 9 145 22l-29 28q-115 -26 -363 -36v-146q0 -184 -55 -270q14 -5 31 -18
q58 94 58 288v41h168q-4 -35 -7 -54h-118v-180h35v148h233v-150h36v182h-152q1 5 3.5 24t3.5 30h187v32h-182q0 7 1.5 19t2.5 22t2 18zM531 454h-171v44q94 4 176 12q-2 -28 -5 -56zM827 617q-131 131 -316 131t-315 -131q-131 -130 -131 -315t131 -316q130 -130 315 -131v0
q185 1 316 131q131 131 131 316t-131 315zM790 23q-116 -115 -279 -116q-163 1 -278 116q-116 116 -116 279t116 278q115 116 278 116t279 -116q116 -115 116 -278t-116 -279z" />
    <glyph glyph-name="uniE63F" unicode="&#xe63f;" 
d="M536 -60h-24h-18h-6q-17 0 -23 -6q-36 -36 -118 -36q-50 0 -95 18q-35 18 -35 41q0 25 41 42q13 4 18.5 9.5t5.5 13.5q0 24 -6 30t-15 20.5t-15 20.5q-9 18 -29 18q-6 0 -10 -1.5t-10.5 -5.5t-9.5 -5q-18 -18 -24 -18q-4 0 -7.5 13t-3.5 35q0 29 11 100q18 53 59 95
q12 11 12 29v12q0 27 18 53q6 6 6 18v6q0 106 77 183q68 77 177 77q106 0 183 -77q77 -86 77 -183v-6q0 -12 6 -18q18 -26 18 -53v-12q0 -23 11 -29q42 -42 59 -95q20 -60 12 -100q0 -39 -17 -47q-6 0 -24 17q-12 12 -30 12h-5q-21 0 -30 -18q-6 -17 -30 -41q-13 -14 -5 -30
q0 -5 2.5 -9t8.5 -9l6 -5q42 -17 42 -42q0 -23 -35.5 -41t-94.5 -18q-74 0 -119 36q6 0 -2 3q-6 3 -9 3zM672 -173q88 0 141 36q59 39 59 94q0 33 -17 59q17 0 23 6q50 17 59 89q9 62 -17 142q-15 52 -65 112q0 38 -18 83q0 135 -94 230q-95 95 -231 95t-230 -95
q-95 -104 -95 -230q-18 -36 -18 -83v-6q-41 -34 -65 -106q-26 -80 -17 -142q8 -68 59 -89q3 0 11.5 -3t11.5 -3q-17 -26 -17 -59q0 -60 59 -94q53 -36 136 -36q98 0 147 42h30q58 -42 148 -42z" />
    <glyph glyph-name="uniE640" unicode="&#xe640;" 
d="M898 64q-27 21 -86 52t-104 52l-46 21l-113 -209l-17 50l31 63l-62 63l-62 -63l31 -63l-20 -51l-111 210q-175 -78 -236 -125q-27 -21 -48.5 -69t-30.5 -85l-8 -37h971q0 5 -2 14.5t-9 36t-16 49.5t-25.5 49t-36.5 42zM507 207q50 0 96.5 31.5t76 77t47 95t17.5 88.5v37
q0 14 -2.5 40t-6.5 42.5t-12 40.5t-19.5 39.5t-30 33t-41.5 27.5t-55 17t-70.5 7t-70.5 -7t-55 -17t-41.5 -27.5t-30 -33t-19.5 -39.5t-12 -40.5t-6.5 -42.5t-2.5 -40v-37q0 -39 17.5 -88.5t47.5 -95.5t76 -77t97 -31zM507 207z" />
    <glyph glyph-name="uniE641" unicode="&#xe641;" 
d="M115 685q35 58 77 83q53 32 115 32h13q54 0 96.5 -54t57.5 -144q9 -43 4 -87.5t-24 -72.5q-20 -52 -70 -52l-13 -12v-13q39 -77 64 -109q19 -32 71 -96q6 -6 19 -6h6q25 36 58 44q35 5 84 -10t95 -47q72 -53 102.5 -118t6.5 -113l-7 -6q-32 -64 -83 -90
q-47 -28 -105 -30.5t-119 20.5t-123 66t-121 107.5t-108 144.5q-96 148 -122.5 305t26.5 258zM403 467q22 55 13 128q-9 60 -39.5 103.5t-56.5 43.5h-13q-55 0 -89 -25q-34 -23 -52 -58q-47 -87 -22 -229.5t112 -282.5q54 -85 122 -153t135 -106t131 -48.5t111 19.5
q37 19 58 71q0 6 6 6v6q15 25 -11 70.5t-78 83.5q-34 24 -72.5 37t-62.5 8q-19 -10 -19 -19q-1 -3 -4 -7.5t-15 -13.5t-26 -11q-29 -10 -64 25l-6 7q-51 64 -77 102q-9 13 -18.5 30.5t-15.5 30t-15.5 32t-14.5 29.5v6q-10 29 0 58q13 25 45 38h6q7 0 12.5 2.5t8 4.5t6.5 6.5
t5 5.5zM621 454q5 10 13.5 14t18.5 -1q42 -8 64 -51q17 -34 6 -77q-14 -27 -38 -19q-28 14 -19 38q2 6 2 12.5t-1 12.5t-1 7q-3 6 -8 11t-10.5 9t-7.5 6q-14 0 -19.5 12t0.5 26v0zM672 544q5 10 13.5 13.5t18.5 -0.5q72 -24 105.5 -91.5t9.5 -139.5q-14 -27 -38 -19
q-28 14 -19 39q14 48 -8 93.5t-69 59.5q-10 5 -14 18t1 27v0zM698 659q5 10 13.5 14t18.5 -1q56 -19 102.5 -59.5t76.5 -94.5q59 -117 19 -236q-14 -28 -38 -20q-28 14 -20 39q33 110 -12 192q-50 89 -148 128q-9 0 -13 12t1 26v0zM698 659z" />
    <glyph glyph-name="uniE642" unicode="&#xe642;" 
d="M887 618h-740q-31 0 -53 -22t-22 -53v-454q0 -31 22 -52.5t53 -21.5h740q31 0 53 21.5t22 52.5v454q0 31 -22 53t-53 22v0zM869 564l-295 -261q-39 -35 -57.5 -35t-56.5 35l-296 261h705zM127 106v410l231 -202zM166 68l232 206l38 -34q33 -29 81 -29t81 29l38 34
l232 -206h-702zM906 106l-230 208l230 202v-410z" />
    <glyph glyph-name="uniE643" unicode="&#xe643;" 
d="M511.5 -143q-88.5 0 -169.5 33.5t-143.5 96t-96 143.5t-33.5 169.5t33.5 169.5t96 143.5t143.5 96t169.5 33.5t169.5 -33.5t143.5 -96t96 -143.5t33.5 -169.5t-33.5 -169.5t-96 -143.5t-143.5 -96t-169.5 -33.5zM511.5 658q-71.5 0 -137 -27t-116 -78t-77.5 -116.5
t-27 -137t27 -137t77.5 -116t116 -78t137 -27.5t137 27.5t116.5 78t78 116t27 137t-27 137t-78 116.5t-116.5 78t-137 27zM511.5 75q-17.5 0 -30 12.5t-12.5 30.5v364q0 17 12.5 29.5t30 12.5t30 -12.5t12.5 -29.5v-364q0 -18 -12.5 -30.5t-30 -12.5zM694 257h-364
q-18 0 -30.5 12.5t-12.5 30t12.5 30t30.5 12.5h364q17 0 29.5 -12.5t12.5 -30t-12.5 -30t-29.5 -12.5z" />
    <glyph glyph-name="uniE644" unicode="&#xe644;" 
d="M210 349h182v-449h250v449h172l-172 203v0l-125 148z" />
    <glyph glyph-name="uniE645" unicode="&#xe645;" 
d="M179 802h666q14 0 24 -10t10 -24v-17q0 -14 -10 -24t-24 -10h-666q-14 0 -24 10t-10 24v17q0 14 10 24t24 10zM981 427q0 -36 -32 -61t-78.5 -25t-79 25t-32.5 61q0 12 2 17h-22q2 -5 2 -17q0 -36 -32.5 -61t-78.5 -25t-78.5 25t-32.5 61q0 12 2 17h-23q2 -5 2 -17
q0 -36 -32.5 -61t-78.5 -25t-78.5 25t-32.5 61q0 12 2 17h-22q1 -5 1 -17q0 -36 -32 -61t-78.5 -25t-78.5 25t-32 61q0 12 1 17h4l85 239h768l85 -239h-1q1 -5 1 -17zM811 -34h-683v341h85v-222h598v222h85v-341h-85z" />
    <glyph glyph-name="uniE646" unicode="&#xe646;" 
d="M746 471q0 88 -67 150.5t-161 62.5t-161 -62.5t-67 -150.5q0 -32 10 -63v0q8 -23 21 -44l196 -415l197 415q14 21 21 44v0q11 31 11 63zM518 377q-39 0 -66.5 27.5t-27.5 66.5t27.5 66.5t66.5 27.5t66.5 -27.5t27.5 -66.5t-27.5 -66.5t-66.5 -27.5zM517 -51z" />
    <glyph glyph-name="uniE647" unicode="&#xe647;" 
d="M512 787l169 -306l343 -66l-239 -255l43 -347l-316 148l-316 -148l43 347l-239 255l343 66zM512 787z" />
    <glyph glyph-name="uniE648" unicode="&#xe648;" 
d="M946 180l-255 -1h-44v545q0 10 -8.5 17t-20.5 7h-212q-12 0 -21 -7t-9 -17v-545h-47l-251 1q-11 0 -13.5 -4.5t4.5 -10.5l427 -306q6 -6 15.5 -6t16.5 6l427 305q6 7 3.5 11.5t-12.5 4.5z" />
    <glyph glyph-name="uniE649" unicode="&#xe649;" 
d="M946 421h-255h-43v-545q0 -10 -9 -17t-21 -7h-212q-12 0 -21 7t-9 17v545h-47l-251 -1q-11 0 -13.5 5t4.5 11l427 306q6 6 15.5 6t16.5 -6l427 -306q7 -6 4 -10.5t-13 -4.5zM946 421z" />
    <glyph glyph-name="uniE64A" unicode="&#xe64a;" 
d="M704 364h-128v128h-64v-128h-128v-64h128v-128h64v128h128v64zM832 684h-576q-27 0 -45.5 -18.5t-18.5 -45.5v-576q0 -27 18.5 -45.5t45.5 -18.5h576q27 0 45.5 18.5t18.5 45.5v576q0 27 -18.5 45.5t-45.5 18.5zM832 76q0 -13 -9.5 -22.5t-22.5 -9.5h-512
q-13 0 -22.5 9.5t-9.5 22.5v512q0 13 9.5 22.5t22.5 9.5h512q13 0 22.5 -9.5t9.5 -22.5v-512z" />
    <glyph glyph-name="uniE64B" unicode="&#xe64b;" 
d="M384 364v-64h320v64h-320zM832 684h-576q-27 0 -45.5 -18.5t-18.5 -45.5v-576q0 -27 18.5 -45.5t45.5 -18.5h576q27 0 45.5 18.5t18.5 45.5v576q0 27 -18.5 45.5t-45.5 18.5zM832 76q0 -13 -9.5 -22.5t-22.5 -9.5h-512q-13 0 -22.5 9.5t-9.5 22.5v512q0 13 9.5 22.5
t22.5 9.5h512q13 0 22.5 -9.5t9.5 -22.5v-512z" />
    <glyph glyph-name="uniE64C" unicode="&#xe64c;" 
d="M626 302h40l-46 -193l-59 271h-95l-69 -271l-52 271h-100l101 -437h98l68 259l61 -259h90l116 437h-153v-78zM903 613l-143 142q-23 24 -63 40.5t-73 16.5h-480q-33 0 -56.5 -23.5t-23.5 -56.5v-864q0 -33 23.5 -56.5t56.5 -23.5h736q33 0 56.5 23.5t23.5 56.5v608
q0 33 -16.5 73t-40.5 64zM704 719q6 -4 11 -9l143 -143q4 -4 9 -11h-163v163zM896 -132q0 -6 -5 -11t-11 -5h-736q-7 0 -11.5 4.5t-4.5 11.5v864q0 7 4.5 11.5t11.5 4.5h480q7 0 16 -2v-254h254q2 -9 2 -16v-608z" />
    <glyph glyph-name="uniE64D" unicode="&#xe64d;" 
d="M808 -144h-595q-61 0 -104.5 43.5t-43.5 105.5v260q0 15 11 26t26 11t26 -11t11 -26v-260q0 -31 22 -53t52 -22h595q31 0 52.5 22t21.5 53v260q0 15 11 26t26.5 11t26.5 -11t11 -26v-260q0 -62 -44 -105.5t-105 -43.5zM476 229v483q0 15 10.5 25.5t25 10.5t25.5 -10.5
t11 -25.5v-480l242 241q10 11 25 11t25.5 -10.5t10.5 -25.5t-11 -25q-304 -306 -305 -306q-9 -9 -21 -9h-4q-13 0 -22 9l-307 305q-10 11 -10 26t10.5 25.5t25 10.5t25.5 -11z" />
    <glyph glyph-name="uniE64E" unicode="&#xe64e;" 
d="M65 300q0 -185 131 -316t316 -131t316 131t131 316t-131 316t-316 131t-316 -131t-131 -316zM95 300q0 113 56 209t152 152t209 56t209 -56t152 -152t56 -209t-56 -209t-152 -152t-209 -56t-209 56t-152 152t-56 209zM403 536l235 -236l-235 -236l-17 16l219 220
l-219 220z" />
    <glyph glyph-name="uniE64F" unicode="&#xe64f;" horiz-adv-x="1000" 
d="M348 -119h-165q-45 0 -77 33q-32 32 -30 80v161q1 46 33 78q28 28 71 28h6h161h2q47 0 76 -29q31 -31 31 -77v-163q0 -47 -32 -79q-31 -32 -76 -32zM348 -69h1q23 1 40 17q17 18 17 44v163q-1 26 -16 42q-15 14 -41 14h-1h-163h-3h-2q-22 0 -36 -13q-17 -17 -18 -43v-162
v-2q-1 -26 15 -42q18 -18 42 -18h165zM813 317h-50v252h-251v50h301v-302zM504 275l-35 35l259 259h35l1 -35zM956 648q-3 44 -35 75q-31 32 -77 33h-1h-657q-44 0 -75 -31t-31 -77v-331l50 -1v332q1 26 16.5 41.5t40.5 16.5h655q28 -2 44.5 -18.5t19.5 -42.5v-653
q-1 -28 -18 -44q-18 -17 -41 -18h-334v-50h334q42 0 75 31t34 80v655v2z" />
    <glyph glyph-name="uniE650" unicode="&#xe650;" 
d="M777 477h-428q-8 0 -14 -6t-6 -14.5t6 -14.5t14 -6h428q8 0 14 6t6 14.5t-6 14.5t-14 6zM777 342h-428q-8 0 -14 -6t-6 -14.5t6 -14.5t14 -6h428q8 0 14 6t6 14.5t-6 14.5t-14 6zM777 207h-428q-8 0 -14 -5.5t-6 -14t6 -14.5t14 -6h428q8 0 14 6t6 14.5t-6 14t-14 5.5z
M263 207h-24q-9 0 -15 -5.5t-6 -14t6 -14.5t15 -6h24q9 0 15 6t6 14.5t-6 14t-15 5.5zM777 73h-428q-8 0 -14 -6t-6 -14.5t6 -14.5t14 -6h428q8 0 14 6t6 14.5t-6 14.5t-14 6zM263 73h-24q-9 0 -15 -6t-6 -14.5t6 -14.5t15 -6h24q9 0 15 6t6 14.5t-6 14.5t-15 6zM263 343
h-24q-9 0 -15 -6t-6 -14.5t6 -14.5t15 -6h24q9 0 15 6t6 14.5t-6 14.5t-15 6zM263 478h-24q-9 0 -15 -6t-6 -14.5t6 -14.5t15 -6h24q9 0 15 6t6 14.5t-6 14.5t-15 6zM918 800h-796q-25 0 -42.5 -17.5t-17.5 -42.5v-900q0 -25 17.5 -42.5t42.5 -17.5h796q25 0 42.5 17.5
t17.5 42.5v900q0 25 -17.5 42.5t-42.5 17.5zM935 -160q0 -7 -5 -12t-12 -5h-796q-7 0 -12 5t-5 12v900q0 7 5 12t12 5h796q7 0 12 -5t5 -12v-900zM415 610h205q12 0 20 8t8 20t-8 20t-20 8h-205q-11 0 -19.5 -8t-8.5 -20t8.5 -20t19.5 -8z" />
    <glyph glyph-name="uniE651" unicode="&#xe651;" 
d="M512 812q-94 -72 -194 -109t-244 -37v-379q0 -53 25 -120.5t69.5 -133t99.5 -121t120 -90t124.5 -34.5t124 34.5t119.5 90t99.5 121t69.5 133t25 120.5v379q-144 0 -244 37t-194 109zM770 435h-8q-31 0 -48 -7q-16 -8 -25 -29l-164 -420h-27l-2 4l-169 417q-11 24 -23 30
q-13 5 -42 5h-8v40h211v-40h-7q-37 0 -49 -5q-11 -7 -5 -24l125 -307l116 306q6 13 -5 20q-13 10 -51 10h-7v40h188v-40z" />
    <glyph glyph-name="uniE652" unicode="&#xe652;" 
d="M937 662l-42 1q-9 0 -29.5 1.5t-70.5 12t-93 28.5q-44 18 -86.5 40.5t-58 32.5t-20.5 14l-25 19l-25 -19q-65 -47 -165 -87q-43 -18 -93 -28.5t-70.5 -12t-29.5 -1.5l-42 -1v-428q0 -61 30 -127.5t77.5 -121t103.5 -99t113 -69.5t101 -25t101 25t113 69.5t104 99
t77.5 121t29.5 127.5v428zM465 115l-181 153l56 66l115 -99l220 253l65 -56z" />
    <glyph glyph-name="uniE653" unicode="&#xe653;" 
d="M718 569v138q0 12 -8.5 21t-21.5 9h-610q-12 0 -21 -9t-9 -21v-206q0 -12 9 -21t21 -9h302q51 50 118.5 78t141.5 28q40 0 78 -8zM346 433h-268q-12 0 -21 -9t-9 -21v-206q0 -12 9 -21t21 -9h192q-2 19 -2 38q0 127 78 228zM275 129h-197q-12 0 -21 -9t-9 -21v-206
q0 -12 9 -21t21 -9h413q-82 36 -139.5 106.5t-76.5 159.5zM640 541q-91 0 -168.5 -45t-122.5 -122.5t-45 -169t45 -168.5t122.5 -122t168.5 -45t168.5 45t122.5 122t45 168.5t-45 169t-122.5 122.5t-168.5 45zM788 224v-41h-120v-54h120v-40h-120v-99h-54v99h-122v40h122v54
h-122v41h94l-113 195h63l104 -190l104 190h63l-113 -195h94zM788 224z" />
    <glyph glyph-name="uniE654" unicode="&#xe654;" 
d="M985.5 806q-12.5 9 -26.5 5l-447 -142l-447 142q-15 4 -27 -5t-12 -24v-814q0 -22 20 -29l449 -149q5 -2 9 -2q1 0 2.5 0.5t2 0.5t1.5 -0.5t2 -0.5q10 0 19 7l447 149q20 7 20 29v809q0 15 -12.5 24zM86 741l396 -126v-758l-396 132v752zM938 -6l-396 -132v753l396 126
v-747zM336 361q9 -9 21 -9q13 0 21 9q9 8 9.5 20.5t-8.5 21.5l-140 145q-9 9 -21.5 9t-21.5 -8.5t-9 -21t9 -21.5zM239 304q-9 9 -21.5 9.5t-21.5 -8.5t-9 -21.5t9 -21.5l140 -144q9 -9 21 -9q13 0 21 9q9 8 9.5 20.5t-8.5 21.5zM665 352q13 0 21 9l140 145q9 9 9 21.5
t-9 21t-21.5 8.5t-21.5 -9l-140 -145q-8 -9 -8 -21.5t9 -20.5q9 -9 21 -9zM783 304l-140 -144q-8 -9 -8 -21.5t9 -20.5q9 -9 21 -9q13 0 21 9l140 145q9 9 9 21t-9 21t-21.5 8.5t-21.5 -9.5z" />
    <glyph glyph-name="uniE655" unicode="&#xe655;" 
d="M791 652h-182q-2 10 -10.5 17t-19.5 7h-2v7q0 19 -13.5 32.5t-32.5 13.5h-40q-19 0 -32.5 -13.5t-13.5 -32.5v-7h-3q-11 0 -19.5 -7t-10.5 -17h-179q-21 0 -36 -15.5t-15 -36.5v-714q0 -21 15 -36t36 -15h558q21 0 36 15t15 36v714q0 21 -15 36.5t-36 15.5zM476 683
q0 6 4.5 10t10.5 4h40q6 0 10 -4t4 -10v-7h-69v7zM791 -123h-558q-8 0 -8 9v714q0 9 8 9h179v-1q0 -12 8.5 -21t21.5 -9h137q13 0 21.5 9t8.5 21v1h182q8 0 8 -9v-714q0 -9 -8 -9zM704 433h-229q-7 0 -12.5 -5.5t-5.5 -13t5.5 -13t12.5 -5.5h229q7 0 12.5 5.5t5.5 13
t-5.5 13t-12.5 5.5zM704 301h-229q-7 0 -12.5 -5.5t-5.5 -13t5.5 -13t12.5 -5.5h229q7 0 12.5 5.5t5.5 13t-5.5 13t-12.5 5.5zM704 162h-229q-7 0 -12.5 -5.5t-5.5 -13t5.5 -13t12.5 -5.5h229q7 0 12.5 5.5t5.5 13t-5.5 13t-12.5 5.5zM704 30h-229q-7 0 -12.5 -5.5t-5.5 -13
t5.5 -13t12.5 -5.5h229q7 0 12.5 5.5t5.5 13t-5.5 13t-12.5 5.5zM395 460l-46 -46l-28 28q-9 9 -17.5 0.5t0.5 -17.5l36 -36q4 -4 9 -4t9 4l54 54q9 9 0 17.5t-17 -0.5zM395 319l-46 -46l-28 28q-9 9 -17.5 0.5t0.5 -17.5l36 -36q4 -4 9 -4t9 4l54 54q9 8 0 17t-17 0z
M358 174q-12 0 -21 -8.5t-9 -21t9 -21t21 -8.5t21 8.5t9 21t-9 21t-21 8.5zM358 37q-12 0 -21 -8.5t-9 -21t9 -21.5t21 -9t21 9t9 21.5t-9 21t-21 8.5z" />
    <glyph glyph-name="uniE656" unicode="&#xe656;" horiz-adv-x="1036" 
d="M179 -121q-12 0 -20 8t-8 20v75q0 112 63 204t168 134l16 7l-13 10q-40 31 -61.5 75t-21.5 94q0 89 63.5 152t153 63t152.5 -63t63 -152q0 -50 -21.5 -94t-61.5 -75l-13 -10l16 -7q105 -42 168 -134t63 -204v-75q0 -12 -8 -20t-20 -8h-678zM518 291q-129 0 -220 -90.5
t-91 -218.5v-48h622v48q0 128 -91 218.5t-220 90.5zM518 666q-66 0 -113.5 -47t-47.5 -113t47.5 -113t113.5 -47t113.5 47t47.5 113t-47.5 113t-113.5 47zM28 -9q-12 0 -20 8.5t-8 19.5v58q0 82 42 151t115 106l11 6l-8 9q-47 51 -47 120q0 70 49.5 121.5t120.5 55.5
q-22 -30 -34 -64q-36 -12 -58 -43.5t-22 -69.5q0 -36 19.5 -66.5t52.5 -45.5q20 -7 20 -25q0 -20 -21 -26l-6 -2q-79 -20 -128.5 -83t-49.5 -144v-30h35q-5 -28 -5 -56h-58zM950 -9q-1 28 -6 56h36v30q0 81 -50 144t-128 83l-8 2q-19 6 -19 26q0 18 19 25q33 15 53 45.5
t20 66.5q0 38 -22.5 69.5t-59.5 44.5q-10 33 -32 63q70 -4 120 -55.5t50 -121.5q0 -69 -47 -120l-9 -9l12 -6q72 -37 114.5 -106t42.5 -151v-58q0 -11 -8.5 -19.5t-19.5 -8.5h-58z" />
    <glyph glyph-name="uniE657" unicode="&#xe657;" 
d="M505.5 727q-115.5 0 -213 -57t-154.5 -154.5t-57 -213t57 -213t154.5 -154.5t213 -57t213 57t154.5 154.5t57 213t-57 213t-154.5 154.5t-213 57zM506 -103q-110 0 -203.5 54.5t-148 147.5t-54.5 203t54.5 203.5t148 148t203.5 54.5t203 -54.5t147.5 -148t54.5 -203.5
t-54.5 -203t-147.5 -147.5t-203 -54.5zM508 187l-215 214l14 14l201 -199l201 199l14 -14z" />
    <glyph glyph-name="uniE658" unicode="&#xe658;" 
d="M737 301zM197 670q-20 0 -34.5 -14.5t-14.5 -35.5v-630q0 -20 14.5 -34.5t34.5 -14.5h630q20 0 34.5 14.5t14.5 34.5v630q0 21 -14.5 35.5t-34.5 14.5h-630zM754 309.5q0 -8.5 -14.5 -15t-34.5 -6.5h-123q-20 0 -34.5 -14.5t-14.5 -34.5v-124q0 -20 -6.5 -34.5t-15 -14.5
t-14.5 14.5t-6 34.5v124q0 20 -14.5 34.5t-34.5 14.5h-119q-21 0 -35.5 6.5t-14.5 15t14.5 14.5t35.5 6h119q20 0 34.5 14.5t14.5 34.5v119q0 20 6 34.5t14.5 14.5t15 -14.5t6.5 -34.5v-119q0 -20 14.5 -34.5t34.5 -14.5h123q20 0 34.5 -6t14.5 -14.5z" />
    <glyph glyph-name="uniE659" unicode="&#xe659;" 
d="M851 587h-195v52q0 18 -12.5 31t-31.5 13h-201q-18 0 -30.5 -13t-12.5 -31v-52h-195q-18 0 -31 -13t-13 -31v-57q0 -18 13 -31t31 -13h51v-481q0 -18 13 -31t31 -13h488q18 0 31 13t13 31v481h51q18 0 30.5 13t12.5 31v57q0 18 -12.5 31t-30.5 13zM403 647h217v-60h-217
v60zM763 -47h-506l1 489h505v-489zM169 471v85h689v-81zM368 347h38v-289h-38v289zM531 347v-289h-38v289h38zM618 347h38v-289h-38v289z" />
    <glyph glyph-name="uniE65A" unicode="&#xe65a;" 
d="M317 -51l-159 157l-100 -267zM828 450l-164 169l-476 -469l170 -177zM963 579q10 11 10 29.5t-5 31.5l-5 12q-43 48 -93 85q-23 16 -45 16t-33 -8l-11 -8l-84 -85l171 -171q73 73 95 98z" />
    <glyph glyph-name="uniE65B" unicode="&#xe65b;" 
d="M512 716q-23 0 -39 -17l-155 -172q-13 -15 -13 -35q0 -21 15 -36.5t37 -15.5q23 0 38 18l65 72v-339q0 -22 15 -37t36.5 -15t36.5 15t15 37v339l65 -72q16 -18 39 -18q21 0 36 15.5t15 36.5q0 20 -13 35l-155 172q-15 17 -38 17zM856 194v-207h-689v207q0 21 -15 36.5
t-36.5 15.5t-36.5 -15.5t-15 -36.5v-258q0 -22 15 -37t37 -15h792q21 0 36 15t15 37v258q0 21 -15 36.5t-36.5 15.5t-36.5 -15.5t-15 -36.5z" />
    <glyph glyph-name="uniE65C" unicode="&#xe65c;" 
d="M512 -25zM661 61h-149v209h149v149h179v90q0 10 -10 20t-20 10h-417l-30 59q-14 30 -30 30h-149q-16 0 -30 -30l-30 -59h-30q-10 0 -20 -10t-10 -20v-507q0 -10 10 -20t20 -10h567v89zM810 360h-89v-150h-149v-89h149v-149h89v149h150v89h-150v150z" />
    <glyph glyph-name="uniE65D" unicode="&#xe65d;" 
d="M216 34h323q0 27 7 54h-330v-54zM808 249h-53q27 0 53 -7v7zM808 -128v108h108v108h-108v107h-107v-107h-108v-108h108v-108h107zM755 249h-539v-54h396q61 54 143 54zM216 411h592v-54h-592v54zM916 885q0 4 -3 7.5t-8 3.5h-786q-5 0 -8 -3.5t-3 -7.5v-1002q0 -4 3 -7.5
t8 -3.5h493q-26 23 -44 54h-406v916h700v-622q31 -17 54 -44v709zM216 573h592v-54h-592v54zM216 734h592v-54h-592v54z" />
    <glyph glyph-name="uniE65E" unicode="&#xe65e;" 
d="M262 410v37q83 52 106 183h58q-17 -78 -44 -126v-397h-57v337q-17 -11 -51 -29q-7 -3 -12 -5zM453 426v184h310v-108q2 -78 -78 -76h-48v-60h165v-41h-80q11 -92 80 -152v-36q-119 57 -133 188h-32v-218h-60v218h-32q-16 -131 -136 -188v36q72 62 83 152h-83v41h168v60
h-124zM511 465h158q39 -2 37 39v67h-195v-106zM948 698l-76 65l-16 -8q-45 -22 -92 -31t-81 -7.5t-67 10t-48 15t-27 13.5l-13 7l-13 -8q-12 -6 -27 -12.5t-48 -15t-67 -10t-81 7.5t-92 31l-17 8l-75 -65l9 -19q49 -99 49 -165q0 -14 -10 -67q-23 -116 -23 -179
q0 -189 149 -240q179 -61 224 -126l22 -32l22 32q45 65 223 126q150 51 150 240q0 64 -23 179v0q-11 53 -11 67q0 66 49 165zM885 682q-45 -99 -45 -168q0 -18 11 -76v-1q22 -110 22 -169q0 -79 -28 -126t-88 -67q-160 -55 -226 -120l-3 -3l-3 3q-66 65 -227 120
q-59 20 -87 67t-28 126q0 59 21 169q12 58 12 77q0 69 -46 168l-1 3l22 20l3 -2q55 -24 109.5 -32t98.5 -1.5t72 15t52 20.5l2 1l2 -1q23 -12 51.5 -20.5t72.5 -15t98.5 1.5t109.5 32l2 2l23 -20z" />
    <glyph glyph-name="uniE65F" unicode="&#xe65f;" horiz-adv-x="1186" 
d="M733 477q-20 0 -33.5 -13.5t-13.5 -33t13.5 -33t33 -13.5t33 13.5t13.5 33t-13.5 33t-32.5 13.5zM918 755h-695q-29 0 -49.5 -20.5t-20.5 -49.5v-509q0 -29 20.5 -49.5t49.5 -20.5h254l93 -93l93 93h255q29 0 49 20.5t20 49.5v509q0 29 -20 49.5t-49 20.5zM948 195
q0 -19 -14 -33t-33 -14h-260l-71 -71l-71 71h-259q-20 0 -33.5 14t-13.5 33v472q0 20 13.5 33.5t33.5 13.5h661q19 0 33 -13.5t14 -33.5v-472zM408 477q-19 0 -32.5 -13.5t-13.5 -33t13.5 -33t32.5 -13.5t33 13.5t14 33t-14 33t-33 13.5zM570 477q-19 0 -32.5 -13.5
t-13.5 -33t13.5 -33t33 -13.5t33 13.5t13.5 33t-13.5 33t-33.5 13.5zM570 477z" />
    <glyph glyph-name="uniE660" unicode="&#xe660;" 
d="M513 395l-61 66l-160 -188l-66 60l-95 -121h665v121l-157 225zM272 496q33 0 56.5 23.5t23.5 56.5t-23.5 56.5t-56.5 23.5t-56.5 -23.5t-23.5 -56.5t23.5 -56.5t56.5 -23.5zM893 180v505q0 31 -16.5 47.5t-47.5 16.5h-730q-31 0 -47 -18t-16 -46v-89v-162v-166v-88
q0 -29 16 -46.5t47 -17.5q39 0 730 -1q33 0 48.5 15t15.5 50zM99 177v508h731v-508h-731zM988 590q0 33 -21.5 48.5t-41.5 15.5v-484q1 -4 1.5 -10t-0.5 -21t-5.5 -26.5t-16.5 -21t-30 -9.5h-743q0 -20 15 -41.5t49 -21.5h730q36 0 49.5 16.5t13.5 48.5v506z" />
    <glyph glyph-name="uniE661" unicode="&#xe661;" 
d="M895 622l-461 -608l-195 343l-94 -32l-17 45l135 50l179 -309l453 591v-80z" />
    <glyph glyph-name="uniE662" unicode="&#xe662;" 
d="M516.5 752q-91.5 0 -175 -35.5t-144 -95.5t-96 -143.5t-35.5 -175t35.5 -175t96 -143.5t144 -96t175 -36t174.5 36t143.5 96t96 143.5t35.5 175t-35.5 175t-96 143.5t-143.5 95.5t-174.5 35.5zM514 595q21 0 33.5 -21t10.5 -46l-32 -369h-26l-29 369q-2 25 10.5 46
t32.5 21zM516 10q-20 0 -34 14t-14 34t14 34t34 14t34 -14t14 -34t-14 -34t-34 -14z" />
    <glyph glyph-name="uniE663" unicode="&#xe663;" 
d="M781 379l-64 2h-371v111q0 81 50 133.5t130 52.5q81 0 135.5 -53t54.5 -133v-21h63v21q0 103 -73.5 176.5t-176.5 73.5t-176.5 -73.5t-73.5 -176.5v-111q-34 0 -59 -24.5t-25 -59.5v-193q3 -104 76 -177.5t176 -73.5h166q103 0 176.5 73t73.5 177v193q0 34 -24.5 58.5
t-57.5 24.5zM796 107q0 -78 -55.5 -133.5t-133.5 -55.5h-154q-78 0 -134 55.5t-56 133.5v182q0 11 8 19t19 8h479q11 0 19 -8t8 -19v-182zM526 213q-23 0 -39.5 -16t-16.5 -39q0 -24 19 -74q14 -37 37 -37q15 0 23 9.5t13 27.5q19 50 19 74q0 23 -16.5 39t-38.5 16zM526 213
z" />
    <glyph glyph-name="uniE664" unicode="&#xe664;" 
d="M471 357h-3q-85 16 -116 85q-6 12 6.5 18t18.5 -7q25 -56 96 -69q6 -1 9 -5.5t2 -10.5q-2 -11 -13 -11zM505 248h-13q-74 0 -140 41t-105 110t-39 145v270q0 11 8.5 18t20.5 7h522q12 0 19 -7t7 -18v-270q0 -77 -38.5 -145.5t-103.5 -109.5t-138 -41zM263 784v-240
q0 -94 70 -167.5t159 -73.5h13q88 0 156.5 73.5t68.5 167.5v240h-467zM690 -55h-398q-12 0 -20 8t-8 19.5t8 19.5t20 8h398q12 0 20 -8t8 -19.5t-8 -19.5t-20 -8zM482.5 -52q-11.5 0 -19.5 8t-8 20v302q0 11 8 19.5t19.5 8.5t19.5 -8.5t8 -19.5v-302q0 -12 -8 -20t-19.5 -8z
M237 484q-4 0 -7 2q-12 6 -5 18q2 4 6 11t16.5 23t26.5 29.5t36.5 27.5t47.5 21q76 23 160 -24q39 -21 71.5 -30t52.5 -8.5t39.5 10.5t27.5 17.5t21 20.5q16 17 24 21q13 5 18 -7.5t-8 -18.5q-2 -1 -14 -13q-13 -15 -22.5 -23.5t-32.5 -20.5t-47 -13.5t-62 8t-81 33.5
q-74 41 -139 22q-21 -6 -41 -19t-32.5 -25t-24 -26.5t-14.5 -19.5t-5 -9q-4 -7 -12 -7z" />
    <glyph glyph-name="uniE665" unicode="&#xe665;" 
d="M130 754v-96h764v96h-764zM178 133h191v-287h286v287h191l-333 382z" />
    <glyph glyph-name="uniE666" unicode="&#xe666;" 
d="M802 -58l-144 -144l-145 144l145 144zM469 283l-145 -144l-144 144l144 144zM808 618l-144 -144l-144 144l144 144z" />
  </font>
</defs>
</svg>
